<svg width="210" height="62" viewBox="0 0 210 62" fill="none" xmlns="http://www.w3.org/2000/svg">
<path d="M201.928 61.5H8.1781C4.11424 61.5 0.928101 58.3139 0.928101 54.25V7.75C0.928101 3.68614 4.11424 0.5 8.1781 0.5H201.928C205.992 0.5 209.178 3.68614 209.178 7.75V54.25C209.178 58.3139 205.992 61.5 201.928 61.5Z" fill="black" stroke="#78766C"/>
<path d="M70.1384 15.4062C71.1228 15.7578 71.6853 16.4609 71.6853 17.4688C71.6853 19.0625 70.2791 20.1172 68.1462 20.1172C66.365 20.1172 65.0291 19.25 64.4666 17.9141L65.7087 17.2578C66.1072 18.2188 66.9978 18.8281 68.1697 18.8281C69.4119 18.8281 70.2087 18.2656 70.2087 17.3516C70.2087 16.5547 69.5291 16.0625 68.4041 16.0625H67.2322V14.8203H68.4275C69.2712 14.8203 69.9041 14.3984 69.9041 13.6484C69.9041 12.8047 69.2712 12.2656 68.1462 12.2656C66.9978 12.2656 66.2478 12.8516 65.8728 13.7891L64.5369 13.2734C65.0994 11.8672 66.4822 10.9766 68.1697 10.9766C70.115 10.9766 71.3806 11.9609 71.3806 13.5078C71.3806 14.375 70.9353 15.0547 70.1384 15.4062ZM80.0347 20L79.2378 17.9375H74.9722L74.1753 20H72.6284L76.2144 11.0938H78.0191L81.605 20H80.0347ZM75.4878 16.625H78.7222L77.105 12.4531L75.4878 16.625ZM88.9934 15.4531C89.8137 15.8281 90.2825 16.5781 90.2825 17.5625C90.2825 19.0625 89.2044 20 87.4231 20H83.345V11.0938H87.3528C89.0403 11.0938 90.1184 12.0078 90.1184 13.4609C90.1184 14.3516 89.72 15.0547 88.9934 15.4531ZM87.1184 12.3594H84.7747V14.8203H87.1184C88.1497 14.8203 88.6653 14.4219 88.6653 13.5781C88.6653 12.7578 88.1497 12.3594 87.1184 12.3594ZM87.1419 18.7344C88.2434 18.7344 88.8059 18.2891 88.8059 17.3984C88.8059 16.5078 88.2434 16.0625 87.1419 16.0625H84.7747V18.7344H87.1419ZM98.7491 20L97.9522 17.9375H93.6866L92.8897 20H91.3428L94.9287 11.0938H96.7334L100.319 20H98.7491ZM94.2022 16.625H97.4366L95.8194 12.4531L94.2022 16.625ZM107.989 11.0938H109.466V20H107.989V16.1094H103.536V20H102.059V11.0938H103.536V14.75H107.989V11.0938ZM119.104 11.0938V12.4531H115.94V20H114.44V12.4531H111.276V11.0938H119.104ZM126.211 20L125.414 17.9375H121.149L120.352 20H118.805L122.391 11.0938H124.196L127.782 20H126.211ZM121.664 16.625H124.899L123.282 12.4531L121.664 16.625ZM139.647 20L136.857 15.6875L135.592 16.9766V20H134.115V16.9766L132.85 15.6875L130.061 20H128.279L131.795 14.6328L128.326 11.0938H130.178L134.115 15.2422V11.0938H135.592V15.2188L139.529 11.0938H141.357L137.912 14.6562L141.404 20H139.647ZM149.191 11.0938H150.644V20H149.168V13.3672L144.621 20H143.191V11.0938H144.668V17.7031L149.191 11.0938ZM160.283 11.0938V12.4531H157.119V20H155.619V12.4531H152.455V11.0938H160.283ZM168.093 11.0938H169.546V20H168.07V13.3672L163.523 20H162.093V11.0938H163.57V17.7031L168.093 11.0938ZM181.182 15.4062C182.167 15.7578 182.729 16.4609 182.729 17.4688C182.729 19.0625 181.323 20.1172 179.19 20.1172C177.409 20.1172 176.073 19.25 175.511 17.9141L176.753 17.2578C177.151 18.2188 178.042 18.8281 179.214 18.8281C180.456 18.8281 181.253 18.2656 181.253 17.3516C181.253 16.5547 180.573 16.0625 179.448 16.0625H178.276V14.8203H179.472C180.315 14.8203 180.948 14.3984 180.948 13.6484C180.948 12.8047 180.315 12.2656 179.19 12.2656C178.042 12.2656 177.292 12.8516 176.917 13.7891L175.581 13.2734C176.143 11.8672 177.526 10.9766 179.214 10.9766C181.159 10.9766 182.425 11.9609 182.425 13.5078C182.425 14.375 181.979 15.0547 181.182 15.4062Z" fill="white"/>
<path d="M105.983 33.79C102.263 33.79 99.3181 36.58 99.3181 40.455C99.3181 44.175 102.263 47.12 105.983 47.12C109.703 47.12 112.648 44.33 112.648 40.455C112.648 36.425 109.703 33.79 105.983 33.79ZM105.983 44.33C103.968 44.33 102.263 42.625 102.263 40.3C102.263 37.975 103.968 36.27 105.983 36.27C107.998 36.27 109.703 37.82 109.703 40.3C109.703 42.625 107.998 44.33 105.983 44.33ZM91.5681 33.79C87.8481 33.79 84.9031 36.58 84.9031 40.455C84.9031 44.175 87.8481 47.12 91.5681 47.12C95.2881 47.12 98.2331 44.33 98.2331 40.455C98.2331 36.425 95.2881 33.79 91.5681 33.79ZM91.5681 44.33C89.5531 44.33 87.8481 42.625 87.8481 40.3C87.8481 37.975 89.5531 36.27 91.5681 36.27C93.5831 36.27 95.2881 37.82 95.2881 40.3C95.2881 42.625 93.5831 44.33 91.5681 44.33ZM74.3631 35.805V38.595H81.0281C80.8731 40.145 80.2531 41.385 79.4781 42.16C78.5481 43.09 76.9981 44.175 74.3631 44.175C70.1781 44.175 67.0781 40.92 67.0781 36.735C67.0781 32.55 70.3331 29.295 74.3631 29.295C76.5331 29.295 78.2381 30.225 79.4781 31.31L81.4931 29.295C79.7881 27.745 77.6181 26.505 74.5181 26.505C68.9381 26.505 64.1331 31.155 64.1331 36.735C64.1331 42.315 68.9381 46.965 74.5181 46.965C77.6181 46.965 79.7881 46.035 81.6481 44.02C83.5081 42.16 84.1281 39.525 84.1281 37.51C84.1281 36.89 84.1281 36.27 83.9731 35.805H74.3631ZM144.733 37.975C144.113 36.425 142.563 33.79 139.153 33.79C135.743 33.79 132.953 36.425 132.953 40.455C132.953 44.175 135.743 47.12 139.463 47.12C142.408 47.12 144.268 45.26 144.888 44.175L142.718 42.625C141.943 43.71 141.013 44.485 139.463 44.485C137.913 44.485 136.983 43.865 136.208 42.47L145.043 38.75L144.733 37.975ZM135.743 40.145C135.743 37.665 137.758 36.27 139.153 36.27C140.238 36.27 141.323 36.89 141.633 37.665L135.743 40.145ZM128.458 46.5H131.403V27.125H128.458V46.5ZM123.808 35.185C123.033 34.41 121.793 33.635 120.243 33.635C116.988 33.635 113.888 36.58 113.888 40.3C113.888 44.02 116.833 46.81 120.243 46.81C121.793 46.81 123.033 46.035 123.653 45.26H123.808V46.19C123.808 48.67 122.413 50.065 120.243 50.065C118.538 50.065 117.298 48.825 116.988 47.74L114.508 48.825C115.283 50.53 117.143 52.7 120.398 52.7C123.808 52.7 126.598 50.685 126.598 45.88V34.1H123.808V35.185ZM120.398 44.33C118.383 44.33 116.678 42.625 116.678 40.3C116.678 37.975 118.383 36.27 120.398 36.27C122.413 36.27 123.963 37.975 123.963 40.3C123.963 42.625 122.413 44.33 120.398 44.33ZM158.218 27.125H151.243V46.5H154.188V39.215H158.218C161.473 39.215 164.573 36.89 164.573 33.17C164.573 29.45 161.473 27.125 158.218 27.125ZM158.373 36.425H154.188V29.76H158.373C160.543 29.76 161.783 31.62 161.783 33.015C161.628 34.72 160.388 36.425 158.373 36.425ZM176.198 33.635C174.028 33.635 171.858 34.565 171.083 36.58L173.718 37.665C174.338 36.58 175.268 36.27 176.353 36.27C177.903 36.27 179.298 37.2 179.453 38.75V38.905C178.988 38.595 177.748 38.13 176.508 38.13C173.718 38.13 170.928 39.68 170.928 42.47C170.928 45.105 173.253 46.81 175.733 46.81C177.748 46.81 178.678 45.88 179.453 44.95H179.608V46.5H182.398V39.06C182.088 35.65 179.453 33.635 176.198 33.635ZM175.888 44.33C174.958 44.33 173.563 43.865 173.563 42.625C173.563 41.075 175.268 40.61 176.663 40.61C177.903 40.61 178.523 40.92 179.298 41.23C178.988 43.09 177.438 44.33 175.888 44.33ZM192.163 34.1L188.908 42.47H188.753L185.343 34.1H182.243L187.358 45.88L184.413 52.39H187.358L195.263 34.1H192.163ZM166.123 46.5H169.068V27.125H166.123V46.5Z" fill="white"/>
<path d="M16.5481 11.625C16.0831 12.09 15.9281 12.865 15.9281 13.795V48.05C15.9281 48.98 16.2381 49.755 16.7031 50.22L16.8581 50.375L36.0781 31.155V30.845L16.5481 11.625Z" fill="url(#paint0_linear_68_170)"/>
<path d="M42.2781 37.665L35.9231 31.31V30.845L42.2781 24.49L42.4331 24.645L50.0281 28.985C52.1981 30.225 52.1981 32.24 50.0281 33.48L42.2781 37.665Z" fill="url(#paint1_linear_68_170)"/>
<path d="M42.4331 37.51L35.9231 31L16.5481 50.375C17.3231 51.15 18.4081 51.15 19.8031 50.53L42.4331 37.51Z" fill="url(#paint2_linear_68_170)"/>
<path d="M42.4331 24.49L19.8031 11.625C18.4081 10.85 17.3231 11.005 16.5481 11.78L35.9231 31L42.4331 24.49Z" fill="url(#paint3_linear_68_170)"/>
<path opacity="0.2" d="M42.2781 37.355L19.8031 50.065C18.5631 50.84 17.4781 50.685 16.7031 50.065L16.5481 50.22L16.7031 50.375C17.4781 50.995 18.5631 51.15 19.8031 50.375L42.2781 37.355Z" fill="black"/>
<path opacity="0.12" d="M16.5481 50.065C16.0831 49.6 15.9281 48.825 15.9281 47.895V48.05C15.9281 48.98 16.2381 49.755 16.7031 50.22V50.065H16.5481ZM50.0281 33.015L42.2781 37.355L42.4331 37.51L50.0281 33.17C51.1131 32.55 51.5781 31.775 51.5781 31C51.5781 31.775 50.9581 32.395 50.0281 33.015Z" fill="black"/>
<path opacity="0.25" d="M19.8031 11.78L50.0281 28.985C50.9581 29.605 51.5781 30.225 51.5781 31C51.5781 30.225 51.1131 29.45 50.0281 28.83L19.8031 11.625C17.6331 10.385 15.9281 11.315 15.9281 13.795V13.95C15.9281 11.625 17.6331 10.54 19.8031 11.78Z" fill="white"/>
<defs>
<linearGradient id="paint0_linear_68_170" x1="34.2181" y1="13.5005" x2="8.20445" y2="39.5126" gradientUnits="userSpaceOnUse">
<stop stop-color="#00A0FF"/>
<stop offset="0.007" stop-color="#00A1FF"/>
<stop offset="0.26" stop-color="#00BEFF"/>
<stop offset="0.512" stop-color="#00D2FF"/>
<stop offset="0.76" stop-color="#00DFFF"/>
<stop offset="1" stop-color="#00E3FF"/>
</linearGradient>
<linearGradient id="paint1_linear_68_170" x1="52.8708" y1="31.0015" x2="15.3654" y2="31.0015" gradientUnits="userSpaceOnUse">
<stop stop-color="#FFE000"/>
<stop offset="0.409" stop-color="#FFBD00"/>
<stop offset="0.775" stop-color="#FFA500"/>
<stop offset="1" stop-color="#FF9C00"/>
</linearGradient>
<linearGradient id="paint2_linear_68_170" x1="38.9099" y1="34.5588" x2="3.63505" y2="69.8337" gradientUnits="userSpaceOnUse">
<stop stop-color="#FF3A44"/>
<stop offset="1" stop-color="#C31162"/>
</linearGradient>
<linearGradient id="paint3_linear_68_170" x1="11.7384" y1="0.272803" x2="27.4911" y2="16.0255" gradientUnits="userSpaceOnUse">
<stop stop-color="#32A071"/>
<stop offset="0.069" stop-color="#2DA771"/>
<stop offset="0.476" stop-color="#15CF74"/>
<stop offset="0.801" stop-color="#06E775"/>
<stop offset="1" stop-color="#00F076"/>
</linearGradient>
</defs>
</svg>
