<svg width="217" height="62" viewBox="0 0 217 62" fill="none" xmlns="http://www.w3.org/2000/svg">
<path d="M216.428 55.7851C216.428 56.6018 216.267 57.4105 215.954 58.1649C215.641 58.9194 215.183 59.6048 214.605 60.182C214.027 60.7592 213.341 61.2168 212.586 61.5288C211.831 61.8407 211.022 62.0009 210.205 62H6.55296C4.90235 62.0017 3.31864 61.348 2.15011 60.1825C0.981583 59.017 0.323928 57.4352 0.321777 55.7851V6.22304C0.323927 4.57212 0.981323 2.98953 2.14962 1.82277C3.31791 0.655999 4.9016 0.000428527 6.55296 0H210.203C211.021 -2.77949e-08 211.83 0.160976 212.585 0.473733C213.34 0.78649 214.026 1.2449 214.604 1.82279C215.182 2.40067 215.641 3.08671 215.953 3.84171C216.266 4.59671 216.427 5.4059 216.426 6.22304L216.428 55.7851Z" fill="white"/>
<path d="M210.206 61.5H210.205H6.55296H6.55244C5.03437 61.5016 3.57786 60.9003 2.5032 59.8285C1.42863 58.7567 0.823838 57.3022 0.821777 55.7847V6.22338C0.823838 4.70509 1.42845 3.24963 2.50294 2.17655C3.57747 1.10342 5.03408 0.500428 6.55296 0.5C6.553 0.5 6.55305 0.5 6.55309 0.5L210.203 0.5C210.955 0.5 211.699 0.648045 212.394 0.935678C213.088 1.22331 213.719 1.64489 214.251 2.17634L214.603 1.82385L214.251 2.17634C214.782 2.70779 215.204 3.33869 215.491 4.03301C215.779 4.72732 215.927 5.47146 215.926 6.22291L215.928 55.7851C215.928 56.5361 215.78 57.2797 215.492 57.9734C215.205 58.6672 214.783 59.2974 214.252 59.8282C213.72 60.359 213.089 60.7798 212.395 61.0667C211.701 61.3535 210.957 61.5008 210.206 61.5Z" fill="black" stroke="#78766C"/>
<path d="M47.7788 30.6593C47.7317 25.4293 52.0622 22.885 52.2603 22.7665C49.8077 19.1917 46.0064 18.7033 44.6705 18.6643C41.4778 18.3284 38.3809 20.5742 36.7545 20.5742C35.0957 20.5742 32.5912 18.6968 29.892 18.7519C26.4185 18.8055 23.169 20.816 21.3868 23.9381C17.7088 30.3039 20.4519 39.6588 23.9757 44.8043C25.7384 47.326 27.7981 50.1381 30.4941 50.0392C33.1317 49.9321 34.117 48.3597 37.2999 48.3597C40.4536 48.3597 41.3788 50.0392 44.1284 49.9759C46.9591 49.9321 48.7413 47.4445 50.4424 44.9017C52.4794 42.0149 53.2974 39.1687 53.3299 39.0227C53.265 39 47.834 36.9262 47.7788 30.6593ZM42.5848 15.2794C44.0034 13.5058 44.9741 11.0928 44.7046 8.64417C42.6514 8.73504 40.0836 10.064 38.6049 11.7987C37.2967 13.3273 36.128 15.8327 36.4299 18.1889C38.7364 18.3609 41.1045 17.0254 42.5848 15.2794Z" fill="white"/>
<path d="M85.9824 49.6772H82.2963L80.2771 43.3341H73.2587L71.3353 49.6772H67.7466L74.7017 28.0824H78.9965L85.9824 49.6772ZM79.6685 40.6729L77.8424 35.034C77.6493 34.4579 77.2857 33.1014 76.7533 30.9659H76.6884C76.4741 31.8843 76.1317 33.2409 75.6626 35.034L73.8674 40.6729H79.6685ZM103.834 41.7C103.834 44.3483 103.115 46.4416 101.675 47.9783C100.386 49.3462 98.784 50.0293 96.8736 50.0293C94.8106 50.0293 93.3271 49.2943 92.4262 47.8209V55.9911H88.9657V39.2238C88.9657 37.5605 88.9219 35.8551 88.8375 34.1058H91.8809L92.074 36.5739H92.1389C93.293 34.7143 95.0443 33.7845 97.3946 33.7845C99.232 33.7845 100.766 34.5099 101.993 35.9622C103.218 37.4177 103.834 39.3293 103.834 41.7ZM100.308 41.8266C100.308 40.311 99.9673 39.0615 99.2823 38.0766C98.5341 37.0526 97.5293 36.5399 96.2698 36.5399C95.416 36.5399 94.6402 36.8255 93.9471 37.3885C93.2524 37.9565 92.7979 38.6981 92.5853 39.6165C92.4904 39.96 92.4364 40.3135 92.4246 40.6696V43.2676C92.4246 44.3986 92.772 45.3544 93.4667 46.1365C94.1614 46.9154 95.0638 47.3065 96.174 47.3065C97.4774 47.3065 98.4919 46.8018 99.2174 45.8006C99.9445 44.7961 100.308 43.472 100.308 41.8266ZM121.748 41.7C121.748 44.3483 121.029 46.4416 119.589 47.9783C118.299 49.3462 116.698 50.0293 114.786 50.0293C112.723 50.0293 111.24 49.2943 110.339 47.8209V55.9911H106.879V39.2238C106.879 37.5605 106.835 35.8551 106.75 34.1058H109.794L109.987 36.5739H110.052C111.204 34.7143 112.956 33.7845 115.307 33.7845C117.143 33.7845 118.677 34.5099 119.907 35.9622C121.131 37.4177 121.748 39.3293 121.748 41.7ZM118.221 41.8266C118.221 40.311 117.878 39.0615 117.194 38.0766C116.445 37.0526 115.444 36.5399 114.184 36.5399C113.33 36.5399 112.555 36.8255 111.858 37.3885C111.164 37.9565 110.711 38.6981 110.498 39.6165C110.393 40.0449 110.336 40.3938 110.336 40.6696V43.2676C110.336 44.3986 110.685 45.3544 111.376 46.1365C112.071 46.9138 112.973 47.3065 114.087 47.3065C115.392 47.3065 116.406 46.8018 117.13 45.8006C117.857 44.7961 118.221 43.472 118.221 41.8266ZM141.777 43.6197C141.777 45.4582 141.135 46.9527 139.857 48.1064C138.452 49.3657 136.489 49.9969 133.973 49.9969C131.649 49.9969 129.786 49.549 128.38 48.6517L129.18 45.7681C130.698 46.6671 132.365 47.115 134.18 47.115C135.485 47.115 136.499 46.8196 137.223 46.2339C137.948 45.6464 138.315 44.8611 138.315 43.8809C138.315 43.0031 138.012 42.268 137.416 41.6692C136.817 41.0721 135.827 40.5155 134.436 40.0043C130.654 38.5942 128.762 36.5318 128.762 33.8186C128.762 32.0466 129.43 30.5959 130.764 29.4617C132.099 28.329 133.868 27.7627 136.069 27.7627C138.034 27.7627 139.672 28.1051 140.972 28.7882L140.104 31.6085C138.88 30.9464 137.499 30.6154 135.954 30.6154C134.733 30.6154 133.775 30.9156 133.09 31.5127C132.514 32.0466 132.222 32.6973 132.222 33.4697C132.222 34.3216 132.555 35.0291 133.217 35.5841C133.792 36.0952 134.84 36.6518 136.356 37.249C138.216 37.9987 139.583 38.8717 140.458 39.8745C141.339 40.8773 141.777 42.1284 141.777 43.6197ZM153.248 36.7021H149.434V44.2623C149.434 46.1852 150.106 47.1442 151.453 47.1442C152.071 47.1442 152.584 47.0923 152.99 46.9835L153.086 49.6107C152.404 49.8654 151.506 49.9936 150.395 49.9936C149.028 49.9936 147.96 49.5766 147.189 48.7425C146.421 47.9085 146.035 46.5113 146.035 44.5446V36.6956H143.762V34.0993H146.035V31.2482L149.434 30.2227V34.0993H153.248V36.7021ZM170.424 41.7633C170.424 44.1568 169.739 46.1219 168.372 47.6586C166.942 49.2407 165.04 50.0293 162.669 50.0293C160.38 50.0293 158.561 49.2715 157.204 47.7576C155.847 46.2403 155.168 44.3288 155.168 42.023C155.168 39.61 155.869 37.6336 157.267 36.0969C158.668 34.5585 160.554 33.7894 162.925 33.7894C165.21 33.7894 167.046 34.5488 168.436 36.0644C169.763 37.5346 170.424 39.4331 170.424 41.7633ZM166.837 41.8428C166.837 40.4165 166.528 39.193 165.91 38.1691C165.185 36.9326 164.146 36.3143 162.8 36.3143C161.414 36.3143 160.351 36.9326 159.627 38.1691C159.007 39.193 158.698 40.4376 158.698 41.9077C158.698 43.3357 159.007 44.5625 159.627 45.5832C160.375 46.8196 161.419 47.4379 162.771 47.4379C164.094 47.4379 165.131 46.8067 165.881 45.5523C166.517 44.5041 166.837 43.2724 166.837 41.8428ZM181.677 37.1484C181.317 37.0834 180.952 37.0514 180.586 37.0526C179.369 37.0526 178.428 37.5102 177.765 38.4319C177.191 39.2433 176.902 40.2688 176.902 41.5069V49.6772H173.441V39.0096C173.444 37.375 173.411 35.7405 173.341 34.1074H176.355L176.481 37.0867H176.577C176.944 36.0628 177.519 35.2368 178.307 34.6186C179.03 34.0784 179.907 33.7858 180.809 33.7845C181.128 33.7845 181.417 33.8072 181.674 33.8478L181.677 37.1484ZM197.154 41.1548C197.162 41.6807 197.12 42.2063 197.027 42.724H186.645C186.684 44.2623 187.188 45.4404 188.152 46.2517C189.027 46.9754 190.158 47.3389 191.547 47.3389C193.084 47.3389 194.487 47.0955 195.748 46.6038L196.29 49.0038C194.816 49.6464 193.076 49.9661 191.069 49.9661C188.653 49.9661 186.757 49.2553 185.378 47.8371C184.001 46.4172 183.312 44.5089 183.312 42.1187C183.312 39.7723 183.953 37.8169 185.237 36.2575C186.581 34.5926 188.397 33.7602 190.682 33.7602C192.927 33.7602 194.626 34.5926 195.78 36.2575C196.694 37.5768 197.154 39.2124 197.154 41.1548ZM193.854 40.2575C193.878 39.2303 193.651 38.3459 193.182 37.5979C192.583 36.634 191.661 36.1537 190.426 36.1537C189.294 36.1537 188.373 36.6226 187.671 37.5638C187.095 38.3118 186.753 39.2108 186.647 40.2542L193.854 40.2575Z" fill="white"/>
<path d="M76.1384 15.4062C77.1228 15.7578 77.6853 16.4609 77.6853 17.4688C77.6853 19.0625 76.2791 20.1172 74.1462 20.1172C72.365 20.1172 71.0291 19.25 70.4666 17.9141L71.7087 17.2578C72.1072 18.2188 72.9978 18.8281 74.1697 18.8281C75.4119 18.8281 76.2087 18.2656 76.2087 17.3516C76.2087 16.5547 75.5291 16.0625 74.4041 16.0625H73.2322V14.8203H74.4275C75.2712 14.8203 75.9041 14.3984 75.9041 13.6484C75.9041 12.8047 75.2712 12.2656 74.1462 12.2656C72.9978 12.2656 72.2478 12.8516 71.8728 13.7891L70.5369 13.2734C71.0994 11.8672 72.4822 10.9766 74.1697 10.9766C76.115 10.9766 77.3806 11.9609 77.3806 13.5078C77.3806 14.375 76.9353 15.0547 76.1384 15.4062ZM85.2847 18.7812H85.5425V20C85.4722 20.0234 85.2847 20.0469 85.0503 20.0469C84.1831 20.0469 83.7847 19.7422 83.6909 18.9219C83.1987 19.6484 82.2612 20.1172 81.23 20.1172C79.8472 20.1172 78.9331 19.2734 78.9331 18.0547C78.9331 16.3203 80.5972 15.9453 81.9566 15.7344C83.0112 15.5938 83.5269 15.5 83.5269 14.9609C83.5269 14.3984 82.9409 14.0234 82.0503 14.0234C81.2534 14.0234 80.5034 14.375 79.9409 14.9609L79.0737 14.0469C79.8941 13.2734 80.9019 12.8516 82.1206 12.8516C83.8081 12.8516 84.8394 13.7188 84.8394 15.1719V18.3359C84.8394 18.6406 84.98 18.7812 85.2847 18.7812ZM81.4644 18.9688C82.5425 18.9688 83.48 18.2188 83.48 17.3281V16.4141C83.2222 16.5781 82.8003 16.6484 82.1206 16.7656C81.23 16.9062 80.3159 17.0469 80.3159 17.9609C80.3159 18.6172 80.7378 18.9688 81.4644 18.9688ZM91.9934 16.3906C92.7669 16.6719 93.1887 17.2344 93.1887 18.0781C93.1887 19.3438 92.2747 20 90.7512 20H87.3528V12.9688H90.4934C92.0403 12.9688 93.0012 13.5312 93.0012 14.7969C93.0012 15.5703 92.6262 16.1094 91.9934 16.3906ZM88.7122 14.0938V15.875H90.4934C91.2903 15.875 91.6184 15.6172 91.6184 14.9609C91.6184 14.3984 91.22 14.0938 90.5637 14.0938H88.7122ZM90.6106 18.875C91.3606 18.875 91.7825 18.5234 91.7825 17.9141C91.7825 17.3047 91.3137 16.9297 90.5169 16.9297H88.7122V18.875H90.6106ZM100.812 18.7812H101.069V20C100.999 20.0234 100.812 20.0469 100.577 20.0469C99.71 20.0469 99.3116 19.7422 99.2178 18.9219C98.7256 19.6484 97.7881 20.1172 96.7569 20.1172C95.3741 20.1172 94.46 19.2734 94.46 18.0547C94.46 16.3203 96.1241 15.9453 97.4834 15.7344C98.5381 15.5938 99.0537 15.5 99.0537 14.9609C99.0537 14.3984 98.4678 14.0234 97.5772 14.0234C96.7803 14.0234 96.0303 14.375 95.4678 14.9609L94.6006 14.0469C95.4209 13.2734 96.4287 12.8516 97.6475 12.8516C99.335 12.8516 100.366 13.7188 100.366 15.1719V18.3359C100.366 18.6406 100.507 18.7812 100.812 18.7812ZM96.9912 18.9688C98.0694 18.9688 99.0069 18.2188 99.0069 17.3281V16.4141C98.7491 16.5781 98.3272 16.6484 97.6475 16.7656C96.7569 16.9062 95.8428 17.0469 95.8428 17.9609C95.8428 18.6172 96.2647 18.9688 96.9912 18.9688ZM107.708 12.9688H109.114V20H107.708V17.0469H104.286V20H102.88V12.9688H104.286V15.7812H107.708V12.9688ZM117.159 12.9688V14.2109H114.627V20H113.221V14.2109H110.69V12.9688H117.159ZM124.266 18.7812H124.524V20C124.453 20.0234 124.266 20.0469 124.032 20.0469C123.164 20.0469 122.766 19.7422 122.672 18.9219C122.18 19.6484 121.242 20.1172 120.211 20.1172C118.828 20.1172 117.914 19.2734 117.914 18.0547C117.914 16.3203 119.578 15.9453 120.938 15.7344C121.992 15.5938 122.508 15.5 122.508 14.9609C122.508 14.3984 121.922 14.0234 121.032 14.0234C120.235 14.0234 119.485 14.375 118.922 14.9609L118.055 14.0469C118.875 13.2734 119.883 12.8516 121.102 12.8516C122.789 12.8516 123.821 13.7188 123.821 15.1719V18.3359C123.821 18.6406 123.961 18.7812 124.266 18.7812ZM120.446 18.9688C121.524 18.9688 122.461 18.2188 122.461 17.3281V16.4141C122.203 16.5781 121.782 16.6484 121.102 16.7656C120.211 16.9062 119.297 17.0469 119.297 17.9609C119.297 18.6172 119.719 18.9688 120.446 18.9688ZM134.748 20L132.568 16.6953L131.607 17.6562V20H130.201V17.6797L129.217 16.6953L127.061 20H125.35L128.232 15.7578L125.467 12.9688H127.248L130.201 16.0859V12.9688H131.607V16.0625L134.561 12.9688H136.318L133.576 15.7344L136.436 20H134.748ZM142.699 12.9688H144.152V20H142.769V14.8906L139.347 20H137.894V12.9688H139.277V18.0312L142.699 12.9688ZM152.197 12.9688V14.2109H149.666V20H148.259V14.2109H145.728V12.9688H152.197ZM158.577 12.9688H160.031V20H158.648V14.8906L155.226 20H153.773V12.9688H155.156V18.0312L158.577 12.9688ZM170.378 16.3672C171.175 16.625 171.597 17.2109 171.597 18.0078C171.597 19.25 170.401 20.1172 168.62 20.1172C167.167 20.1172 166.065 19.4141 165.597 18.2422L166.768 17.7266C167.143 18.5234 167.8 18.9453 168.643 18.9453C169.581 18.9453 170.167 18.5703 170.167 17.9375C170.167 17.3516 169.651 16.9766 168.784 16.9766H167.893V15.875H168.737C169.487 15.875 169.909 15.5234 169.909 14.9609C169.909 14.3516 169.44 14 168.667 14C167.87 14 167.284 14.3984 166.979 15.125L165.831 14.5156C166.323 13.4844 167.378 12.8516 168.714 12.8516C170.261 12.8516 171.268 13.6484 171.292 14.8906C171.292 15.5703 170.987 16.0625 170.378 16.3672Z" fill="white"/>
</svg>
